<svg width="134" height="44" viewBox="0 0 134 44" fill="none" xmlns="http://www.w3.org/2000/svg">
<g clip-path="url(#clip0_2_29)">
<path d="M27.0354 44C23.1655 34.7344 16.8079 20.7633 12.9395 11.4977C10.463 17.4839 7.9864 23.4717 5.50983 29.4595H0C4.32802 19.6386 8.65604 9.81932 12.9841 0L32.146 43.9937C30.4425 43.9953 28.7389 43.9984 27.0354 44Z" fill="url(#paint0_linear_2_29)"/>
<path d="M29.5677 17.6322C29.7506 17.9114 29.9971 18.137 30.3041 18.3105C30.6111 18.484 30.9403 18.5707 31.2903 18.5707C31.6672 18.5707 32.014 18.484 32.3289 18.3105C32.6439 18.137 32.892 17.9114 33.0717 17.6322C33.2515 17.3546 33.3406 17.0627 33.3406 16.7583V10.7074H35.2206V16.7977C35.2206 17.4839 35.0457 18.1038 34.6942 18.6559C34.3442 19.208 33.867 19.6386 33.2674 19.9462C32.6661 20.2554 32.0076 20.4084 31.2887 20.4084C30.5697 20.4084 29.9128 20.2538 29.3163 19.9462C28.7199 19.6386 28.249 19.2064 27.9023 18.6559C27.5555 18.1038 27.3822 17.4839 27.3822 16.7977V10.7074H29.2893V16.7583C29.2893 17.0627 29.3816 17.3546 29.5661 17.6322H29.5677Z" fill="black"/>
<path d="M43.5585 10.7074V12.5324H41.2045V20.3043H39.2973V12.5324H37.0355V10.7074H43.5569H43.5585Z" fill="black"/>
<path d="M45.313 13.0814C45.7552 12.3242 46.3564 11.7232 47.1151 11.2752C47.8722 10.8273 48.6946 10.6033 49.5805 10.6033C50.4665 10.6033 51.2873 10.8273 52.046 11.2752C52.8047 11.7232 53.4091 12.3242 53.8608 13.0814C54.3126 13.8369 54.5384 14.6509 54.5384 15.52C54.5384 16.3892 54.3126 17.2236 53.8608 17.9713C53.4091 18.719 52.8047 19.3121 52.046 19.7506C51.2873 20.1907 50.4665 20.41 49.5805 20.41C48.6946 20.41 47.8627 20.1907 47.1088 19.7506C46.3548 19.3121 45.7567 18.719 45.3146 17.9713C44.8708 17.2236 44.6497 16.4065 44.6497 15.52C44.6497 14.6335 44.8708 13.8369 45.3146 13.0814H45.313ZM47.0229 17.058C47.2901 17.5281 47.6543 17.8987 48.114 18.1732C48.5737 18.4477 49.0843 18.5849 49.6458 18.5849C50.2072 18.5849 50.6844 18.4477 51.1314 18.1732C51.5783 17.8987 51.9283 17.5296 52.1828 17.0643C52.4373 16.599 52.5645 16.0847 52.5645 15.5184C52.5645 14.9522 52.4325 14.4237 52.17 13.9537C51.9076 13.4836 51.5497 13.1129 51.098 12.8384C50.6462 12.564 50.1436 12.4283 49.5917 12.4283C49.0397 12.4283 48.5371 12.5656 48.0854 12.8384C47.6337 13.1129 47.2774 13.4836 47.0133 13.9537C46.7493 14.4237 46.6189 14.9443 46.6189 15.5184C46.6189 16.0926 46.7525 16.5879 47.0197 17.0564L47.0229 17.058Z" fill="black"/>
<path d="M66.5825 10.3162V20.3043H64.6753V15.7267L61.5196 20.1734H61.4941L58.4561 16.0138V20.3043H56.6158V10.3162H56.6285L61.5339 17.2142L66.557 10.3162H66.5841H66.5825Z" fill="black"/>
<path d="M74.0376 18.4272H70.8294L70.0404 20.3043H68.1603L72.5265 10.3288H72.6315L76.9977 20.3043H74.7884L74.0392 18.4272H74.0376ZM73.4061 16.8372L72.4725 14.5026L71.499 16.8372H73.4061Z" fill="black"/>
<path d="M83.6496 10.7074V12.5324H81.2955V20.3043H79.3884V12.5324H77.1265V10.7074H83.648H83.6496Z" fill="black"/>
<path d="M87.5672 10.7074V20.3043H85.6601V10.7074H87.5672Z" fill="black"/>
<path d="M90.3094 13.0814C90.7516 12.3242 91.3529 11.7232 92.1116 11.2752C92.8703 10.8273 93.691 10.6033 94.577 10.6033C95.463 10.6033 96.2837 10.8273 97.0424 11.2752C97.8011 11.7232 98.4056 12.3242 98.8573 13.0814C99.309 13.8369 99.5349 14.6509 99.5349 15.52C99.5349 16.3892 99.309 17.2236 98.8573 17.9713C98.4056 18.719 97.8011 19.3121 97.0424 19.7506C96.2837 20.1907 95.463 20.41 94.577 20.41C93.691 20.41 92.8592 20.1907 92.1052 19.7506C91.3513 19.3121 90.7532 18.719 90.311 17.9713C89.8688 17.2236 89.6461 16.4065 89.6461 15.52C89.6461 14.6335 89.8673 13.8369 90.311 13.0814H90.3094ZM92.0193 17.058C92.2866 17.5281 92.6508 17.8987 93.1105 18.1732C93.5702 18.4477 94.0807 18.5849 94.6422 18.5849C95.2037 18.5849 95.6809 18.4477 96.1278 18.1732C96.5748 17.8987 96.9263 17.5296 97.1792 17.0643C97.4337 16.599 97.561 16.0847 97.561 15.5184C97.561 14.9522 97.429 14.4237 97.1665 13.9537C96.9041 13.4836 96.5462 13.1129 96.0944 12.8384C95.6427 12.564 95.1417 12.4283 94.5881 12.4283C94.0346 12.4283 93.5336 12.5656 93.0818 12.8384C92.6301 13.1113 92.2738 13.4836 92.0098 13.9537C91.7473 14.4237 91.6153 14.9443 91.6153 15.5184C91.6153 16.0926 91.7489 16.5879 92.0161 17.0564L92.0193 17.058Z" fill="black"/>
<path d="M110.329 10.7074V20.6955H110.276L103.503 14.632L103.543 20.3043H101.611V10.3288H101.69L108.449 16.4838L108.41 10.7074H110.33H110.329Z" fill="black"/>
<path d="M39.9956 24.1342V25.9593H35.8537V28.1361H39.4437V29.9611H35.8537V33.7295H33.9466V24.1326H39.9956V24.1342Z" fill="black"/>
<path d="M43.9133 24.1342V33.7311H42.0061V24.1342H43.9133Z" fill="black"/>
<path d="M51.8042 33.7311L49.7667 30.6804H48.491V33.7311H46.5839V24.1342H49.5153C50.7162 24.1342 51.6483 24.4229 52.31 25.0018C52.9717 25.5807 53.3026 26.3694 53.3026 27.3679C53.3026 27.9594 53.1785 28.5131 52.9272 29.0305C52.6774 29.5479 52.2941 29.9548 51.7772 30.2498L54.0247 33.7311H51.8026H51.8042ZM48.491 28.8538H49.8446C50.3615 28.8538 50.7385 28.7039 50.9755 28.4042C51.2125 28.1045 51.3302 27.7796 51.3302 27.4326C51.3302 27.0855 51.23 26.7527 51.028 26.4356C50.826 26.1186 50.4363 25.9593 49.8573 25.9593H48.4894V28.8538H48.491Z" fill="black"/>
<path d="M58.7456 25.7637C58.3241 25.7637 57.998 25.8457 57.7658 26.0113C57.5336 26.177 57.4174 26.4246 57.4174 26.7543C57.4174 27.0587 57.586 27.3269 57.9233 27.5556C58.2605 27.7859 58.709 28.0052 59.2705 28.215C59.727 28.3806 60.1167 28.5699 60.4412 28.7828C60.7657 28.9958 61.0345 29.2892 61.2492 29.663C61.4639 30.0369 61.5705 30.5101 61.5705 31.0843C61.5705 31.5796 61.4417 32.0386 61.1824 32.4597C60.9231 32.8809 60.5446 33.2153 60.0451 33.4645C59.5457 33.7122 58.9492 33.8352 58.2573 33.8352C57.6783 33.8352 57.1041 33.7501 56.5347 33.5813C55.9652 33.4125 55.434 33.1538 54.9441 32.8052L55.7855 31.3319C56.1195 31.5748 56.4997 31.7752 56.9291 31.9313C57.3586 32.0875 57.7435 32.1663 58.0855 32.1663C58.4879 32.1663 58.8394 32.0812 59.1369 31.9124C59.4343 31.742 59.5838 31.4676 59.5838 31.0843C59.5838 30.5889 59.1146 30.1583 58.1778 29.7939C57.6258 29.5763 57.1645 29.368 56.7971 29.1677C56.4297 28.9674 56.1116 28.6803 55.8443 28.3065C55.5771 27.9326 55.4435 27.4625 55.4435 26.8978C55.4435 26.0729 55.7171 25.4072 56.2658 24.9024C56.813 24.3992 57.5431 24.1248 58.4545 24.0806C59.1735 24.0806 59.7731 24.161 60.2567 24.3219C60.7386 24.4828 61.2078 24.7116 61.6628 25.0065L60.939 26.4546C60.0976 25.994 59.3659 25.7637 58.744 25.7637H58.7456Z" fill="black"/>
<path d="M69.4742 24.1342V25.9593H67.1201V33.7311H65.213V25.9593H62.9511V24.1342H69.4726H69.4742Z" fill="black"/>
<path d="M79.767 29.5857C80.0978 29.9817 80.2632 30.4565 80.2632 31.0101C80.2632 31.5638 80.1344 32.0039 79.8735 32.3825C79.6143 32.761 79.2707 33.0418 78.8428 33.2264C78.4149 33.4109 77.9505 33.504 77.4479 33.504H75.1224V24.1374H77.0963C78.9064 24.1374 79.8099 24.9292 79.8099 26.5114C79.8099 27.0303 79.6954 27.4862 79.4647 27.8774C79.2341 28.2686 78.9017 28.5573 78.4658 28.7418C79.0019 28.909 79.4345 29.1898 79.767 29.5857ZM75.738 28.5178H77.3842C77.9871 28.5178 78.4372 28.3459 78.7362 28.0036C79.0337 27.6613 79.1832 27.2023 79.1832 26.6313C79.1832 25.9893 79.0019 25.516 78.6424 25.2132C78.2813 24.9103 77.7755 24.7589 77.1218 24.7589H75.7396V28.5194L75.738 28.5178ZM79.0066 32.4235C79.4266 32.0985 79.6349 31.6364 79.6349 31.0385C79.6349 30.4044 79.4107 29.9296 78.9621 29.6141C78.5152 29.2971 77.9887 29.1393 77.3842 29.1393H75.738V32.9125H77.4224C78.0586 32.9125 78.5867 32.75 79.0051 32.4235H79.0066Z" fill="black"/>
<path d="M83.5812 31.742C83.7911 32.1427 84.0822 32.4503 84.456 32.6648C84.8282 32.8809 85.2497 32.9882 85.719 32.9882C86.1882 32.9882 86.6224 32.8809 86.9946 32.6648C87.3668 32.4503 87.6611 32.1427 87.8742 31.742C88.089 31.3414 88.1955 30.8729 88.1955 30.3366V24.1358H88.8V30.376C88.8 31.0448 88.6663 31.6206 88.3975 32.1048C88.1303 32.5891 87.7629 32.9598 87.2984 33.2201C86.8324 33.4803 86.3075 33.6097 85.7205 33.6097C85.1336 33.6097 84.6199 33.4803 84.1554 33.2201C83.6909 32.9598 83.3235 32.5891 83.0547 32.1048C82.7875 31.6221 82.6523 31.0448 82.6523 30.376V24.1358H83.2678V30.3366C83.2678 30.8729 83.3728 31.3414 83.5812 31.742Z" fill="black"/>
<path d="M95.2085 24.8094C94.8395 24.7037 94.4784 24.6516 94.1269 24.6516C93.5399 24.6516 93.0707 24.803 92.7192 25.1059C92.3677 25.4088 92.1911 25.7984 92.1911 26.2732C92.1911 26.6076 92.2865 26.8915 92.4742 27.125C92.6619 27.3584 92.9037 27.5525 93.1964 27.7055C93.489 27.86 93.866 28.0288 94.3273 28.2134C94.8299 28.4074 95.2466 28.6046 95.5791 28.8065C95.9099 29.0084 96.1883 29.2844 96.4141 29.6315C96.6416 29.9785 96.7545 30.4249 96.7545 30.9707C96.7545 31.5165 96.6368 31.9487 96.403 32.3493C96.1692 32.75 95.8399 33.0592 95.4168 33.28C94.9937 33.4993 94.5086 33.6097 93.9646 33.6097C93.0182 33.6097 92.0798 33.2895 91.1493 32.6475L91.4388 32.119C91.7489 32.3651 92.1291 32.5812 92.5824 32.7658C93.0357 32.9503 93.4747 33.0434 93.9026 33.0434C94.2796 33.0434 94.6374 32.9677 94.9778 32.8131C95.3166 32.6585 95.5934 32.4266 95.8081 32.1143C96.0213 31.802 96.1294 31.4265 96.1294 30.9865C96.1294 30.5732 96.0308 30.2261 95.8336 29.9438C95.6363 29.663 95.3898 29.4359 95.0924 29.2639C94.7949 29.092 94.4195 28.9185 93.9678 28.7434C93.4652 28.5494 93.05 28.3632 92.724 28.1818C92.3979 28.002 92.1227 27.7622 91.9 27.4625C91.6773 27.1628 91.5676 26.789 91.5676 26.341C91.5676 25.893 91.6742 25.5113 91.8873 25.1737C92.102 24.8346 92.3979 24.5712 92.7796 24.3819C93.1614 24.1926 93.5861 24.0932 94.0553 24.0853C94.4577 24.0853 94.8744 24.1437 95.3055 24.2573C95.7365 24.3724 96.1199 24.5175 96.4555 24.6926L96.2169 25.1942C95.9147 25.0444 95.5807 24.9166 95.2117 24.8109L95.2085 24.8094Z" fill="black"/>
<path d="M99.8339 24.1374V33.504H99.2168V24.1374H99.8339Z" fill="black"/>
<path d="M110.33 24.1374V33.7296H110.305L103.429 25.6028L103.441 33.5056H102.839V23.9402H102.877L109.753 32.1332L109.74 24.139H110.33V24.1374Z" fill="black"/>
<path d="M118.84 24.1374V24.7573H113.951V28.4784H118.35V29.0983H113.951V32.8841H119.017V33.504H113.335V24.1374H118.842H118.84Z" fill="black"/>
<path d="M124.986 24.8094C124.617 24.7037 124.258 24.6516 123.904 24.6516C123.318 24.6516 122.848 24.803 122.497 25.1059C122.144 25.4088 121.969 25.7984 121.969 26.2732C121.969 26.6076 122.063 26.8915 122.252 27.125C122.441 27.3584 122.681 27.5525 122.974 27.7055C123.268 27.86 123.644 28.0288 124.105 28.2134C124.608 28.4074 125.024 28.6046 125.357 28.8065C125.688 29.0084 125.966 29.2844 126.192 29.6315C126.418 29.9785 126.532 30.4249 126.532 30.9707C126.532 31.5165 126.414 31.9487 126.179 32.3493C125.945 32.75 125.616 33.0592 125.193 33.28C124.77 33.4993 124.286 33.6097 123.741 33.6097C122.794 33.6097 121.856 33.2895 120.925 32.6475L121.215 32.119C121.525 32.3651 121.907 32.5812 122.358 32.7658C122.812 32.9503 123.251 33.0434 123.679 33.0434C124.056 33.0434 124.413 32.9677 124.752 32.8131C125.093 32.6585 125.369 32.4266 125.583 32.1143C125.797 31.802 125.904 31.4265 125.904 30.9865C125.904 30.5732 125.805 30.2261 125.608 29.9438C125.411 29.6614 125.164 29.4359 124.867 29.2639C124.569 29.092 124.194 28.9185 123.742 28.7434C123.24 28.5494 122.824 28.3632 122.498 28.1818C122.172 28.002 121.897 27.7622 121.674 27.4625C121.452 27.1628 121.342 26.789 121.342 26.341C121.342 25.893 121.449 25.5113 121.663 25.1737C121.876 24.8346 122.174 24.5712 122.556 24.3819C122.937 24.1926 123.362 24.0932 123.831 24.0853C124.234 24.0853 124.65 24.1437 125.083 24.2573C125.514 24.3724 125.898 24.5175 126.233 24.6926L125.995 25.1942C125.692 25.0444 125.358 24.9166 124.989 24.8109L124.986 24.8094Z" fill="black"/>
<path d="M132.454 24.8094C132.085 24.7037 131.724 24.6516 131.372 24.6516C130.785 24.6516 130.316 24.803 129.965 25.1059C129.613 25.4088 129.437 25.7984 129.437 26.2732C129.437 26.6076 129.532 26.8915 129.72 27.125C129.907 27.3584 130.149 27.5525 130.442 27.7055C130.735 27.86 131.111 28.0288 131.573 28.2134C132.075 28.4074 132.492 28.6046 132.825 28.8065C133.155 29.0084 133.434 29.2844 133.66 29.6315C133.887 29.9785 134 30.4249 134 30.9707C134 31.5165 133.882 31.9487 133.648 32.3493C133.415 32.75 133.085 33.0592 132.662 33.28C132.239 33.4993 131.754 33.6097 131.21 33.6097C130.264 33.6097 129.325 33.2895 128.395 32.6475L128.684 32.119C128.994 32.3651 129.375 32.5812 129.828 32.7658C130.281 32.9503 130.72 33.0434 131.148 33.0434C131.525 33.0434 131.883 32.9677 132.223 32.8131C132.562 32.6585 132.839 32.4266 133.054 32.1143C133.267 31.802 133.375 31.4265 133.375 30.9865C133.375 30.5732 133.276 30.2261 133.079 29.9438C132.882 29.663 132.635 29.4359 132.338 29.2639C132.04 29.092 131.665 28.9185 131.213 28.7434C130.711 28.5494 130.296 28.3632 129.969 28.1818C129.643 28.002 129.368 27.7622 129.146 27.4625C128.923 27.1628 128.813 26.789 128.813 26.341C128.813 25.893 128.92 25.5113 129.133 25.1737C129.348 24.8346 129.643 24.5712 130.025 24.3819C130.407 24.1926 130.832 24.0932 131.301 24.0853C131.703 24.0853 132.12 24.1437 132.551 24.2573C132.982 24.3724 133.365 24.5175 133.701 24.6926L133.462 25.1942C133.16 25.0444 132.826 24.9166 132.457 24.8109L132.454 24.8094Z" fill="black"/>
<path d="M71.3447 33.75C71.8613 33.75 72.28 33.3348 72.28 32.8225C72.28 32.3103 71.8613 31.895 71.3447 31.895C70.8282 31.895 70.4095 32.3103 70.4095 32.8225C70.4095 33.3348 70.8282 33.75 71.3447 33.75Z" fill="#9A2D4C"/>
</g>
<defs>
<linearGradient id="paint0_linear_2_29" x1="0" y1="22" x2="32.146" y2="22" gradientUnits="userSpaceOnUse">
<stop stop-color="#CC2A4A"/>
<stop offset="0.5" stop-color="#9A2D4C"/>
<stop offset="1" stop-color="#67334D"/>
</linearGradient>
<clipPath id="clip0_2_29">
<rect width="134" height="44" fill="white"/>
</clipPath>
</defs>
</svg>
